<svg width="32" height="32" viewBox="0 0 32 32" fill="none" xmlns="http://www.w3.org/2000/svg">
<path d="M14.6667 22.6666L17.3334 25.3333C17.596 25.5959 17.9078 25.8042 18.251 25.9464C18.5941 26.0885 18.9619 26.1617 19.3334 26.1617C19.7048 26.1617 20.0726 26.0885 20.4157 25.9464C20.7589 25.8042 21.0707 25.5959 21.3334 25.3333C21.596 25.0706 21.8043 24.7588 21.9465 24.4156C22.0886 24.0725 22.1618 23.7047 22.1618 23.3333C22.1618 22.9618 22.0886 22.594 21.9465 22.2509C21.8043 21.9077 21.596 21.5959 21.3334 21.3333" stroke="#9810FA" stroke-width="2.66667" stroke-linecap="round" stroke-linejoin="round"/>
<path d="M18.6667 18.6666L22 21.9999C22.5304 22.5304 23.2499 22.8284 24 22.8284C24.7501 22.8284 25.4696 22.5304 26 21.9999C26.5304 21.4695 26.8284 20.7501 26.8284 19.9999C26.8284 19.2498 26.5304 18.5304 26 17.9999L20.8267 12.8266C20.0767 12.0775 19.06 11.6568 18 11.6568C16.94 11.6568 15.9233 12.0775 15.1733 12.8266L14 13.9999C13.4696 14.5304 12.7501 14.8284 12 14.8284C11.2499 14.8284 10.5304 14.5304 10 13.9999C9.46956 13.4695 9.17157 12.7501 9.17157 11.9999C9.17157 11.2498 9.46956 10.5304 10 9.99994L13.7467 6.25327C14.963 5.04013 16.5492 4.26734 18.2542 4.05724C19.9592 3.84713 21.6855 4.21171 23.16 5.09327L23.7867 5.46661C24.3544 5.80925 25.0294 5.9281 25.68 5.79994L28 5.33327" stroke="#9810FA" stroke-width="2.66667" stroke-linecap="round" stroke-linejoin="round"/>
<path d="M28 4L29.3334 18.6667H26.6667" stroke="#9810FA" stroke-width="2.66667" stroke-linecap="round" stroke-linejoin="round"/>
<path d="M4.00002 4L2.66669 18.6667L11.3334 27.3333C11.8638 27.8638 12.5832 28.1618 13.3334 28.1618C14.0835 28.1618 14.8029 27.8638 15.3334 27.3333C15.8638 26.8029 16.1618 26.0835 16.1618 25.3333C16.1618 24.5832 15.8638 23.8638 15.3334 23.3333" stroke="#9810FA" stroke-width="2.66667" stroke-linecap="round" stroke-linejoin="round"/>
<path d="M4 5.33325H14.6667" stroke="#9810FA" stroke-width="2.66667" stroke-linecap="round" stroke-linejoin="round"/>
</svg>
