<svg width="28" height="28" viewBox="0 0 28 28" fill="none" xmlns="http://www.w3.org/2000/svg">
<path d="M12.8333 16.3333H15.1667C15.7855 16.3333 16.379 16.0875 16.8166 15.6499C17.2542 15.2123 17.5 14.6188 17.5 14C17.5 13.3811 17.2542 12.7876 16.8166 12.35C16.379 11.9125 15.7855 11.6666 15.1667 11.6666H11.6667C10.9667 11.6666 10.3833 11.9 10.0333 12.3666L3.5 18.6666" stroke="#00A63E" stroke-width="2.33333" stroke-linecap="round" stroke-linejoin="round"/>
<path d="M16.8584 15.6217L22.75 10.1453C23.562 9.33333 24.5 7.99166 24.5 6.70833C24.5002 6.0589 24.3032 5.42472 23.9353 4.88962C23.5673 4.35452 23.0456 3.94369 22.4391 3.71145C21.8326 3.4792 21.1699 3.43647 20.5386 3.5889C19.9074 3.74133 19.3372 4.08175 18.9035 4.56516C18.8734 4.5979 18.8368 4.62403 18.796 4.6419C18.7552 4.65977 18.7112 4.669 18.6667 4.669C18.6222 4.669 18.5782 4.65977 18.5374 4.6419C18.4966 4.62403 18.46 4.5979 18.4299 4.56516C17.9962 4.08175 17.426 3.74133 16.7948 3.5889C16.1635 3.43647 15.5008 3.4792 14.8943 3.71145C14.2879 3.94369 13.7661 4.35452 13.3982 4.88962C13.0302 5.42472 12.8332 6.0589 12.8334 6.70833C12.8334 8.10833 13.769 9.33099 14.5834 10.1453L18.6667 13.9417" stroke="#00A63E" stroke-width="2.33333" stroke-linecap="round" stroke-linejoin="round"/>
<path d="M2.33337 17.5L9.33337 24.5" stroke="#00A63E" stroke-width="2.33333" stroke-linecap="round" stroke-linejoin="round"/>
<path d="M8.16663 23.3333L10.0333 21.7C10.3833 21.2333 10.9666 21 11.6666 21H16.3333C17.6166 21 18.7833 20.5333 19.6 19.6L24.9666 14.4667C25.4168 14.0412 25.6796 13.4543 25.6971 12.8352C25.7146 12.216 25.4854 11.6152 25.06 11.165C24.6345 10.7148 24.0476 10.452 23.4285 10.4345C22.8093 10.417 22.2085 10.6462 21.7583 11.0717" stroke="#00A63E" stroke-width="2.33333" stroke-linecap="round" stroke-linejoin="round"/>
</svg>
